<svg width="108" height="138" viewBox="0 0 108 138" fill="none" xmlns="http://www.w3.org/2000/svg">
<g filter="url(#filter0_d_7_191)">
<path d="M4 2H104V127C104 129.761 101.761 132 99 132H9C6.23858 132 4 129.761 4 127V2Z" fill="white"/>
<circle cx="54" cy="67" r="22" fill="#6EEBE7" fill-opacity="0.21"/>
<path d="M49.2221 52.5412C48.7541 52.6485 48.3782 52.8789 48.0103 53.2774C47.5884 53.7299 47.5653 53.799 47.1744 55.3711C46.998 56.0692 46.8291 56.7669 46.7831 56.9206L46.7064 57.2122H43.0023C39.8502 57.2122 39.2443 57.2277 38.8839 57.3349C37.7643 57.6647 36.8514 58.5543 36.5065 59.6742C36.3679 60.1185 36.3604 60.5253 36.3604 69.3679C36.3604 78.211 36.3679 78.6174 36.5062 79.0624C36.8665 80.2281 37.8788 81.1716 39.0524 81.4398C39.5204 81.5472 68.4807 81.5472 68.9483 81.4398C70.1216 81.1713 71.1342 80.2281 71.4945 79.0624C71.6328 78.6174 71.6403 78.211 71.6403 69.3759C71.6403 61.1848 71.6249 60.1109 71.5176 59.7351C71.1879 58.6155 70.2983 57.7025 69.1784 57.3576C68.7489 57.2197 68.4267 57.2118 64.9983 57.2118H61.2939L61.2173 56.9202C61.1712 56.7669 61.0028 56.0688 60.8264 55.3708C60.6575 54.6727 60.4581 53.9826 60.3969 53.8293C60.228 53.4459 59.6376 52.8861 59.1771 52.6711L58.7937 52.4947L54.1538 52.4793C51.5919 52.4721 49.3833 52.5027 49.2221 52.5412ZM58.7556 54.2742C58.9701 54.4661 59.0318 54.6425 59.3309 55.8312C59.5227 56.5674 59.6762 57.1809 59.6762 57.1888C59.6762 57.2039 57.1223 57.2118 54.0008 57.2118C50.8791 57.2118 48.3253 57.2043 48.3253 57.1888C48.3253 57.1812 48.4787 56.5674 48.6705 55.8312C48.9697 54.6425 49.0309 54.4661 49.2458 54.2742L49.4759 54.0672H54.0011H58.5263L58.7556 54.2742ZM68.7183 58.8685C69.0099 58.9528 69.2319 59.091 69.4929 59.3517C70.1525 60.0112 70.1064 59.2905 70.1064 69.3298C70.1064 79.147 70.1295 78.6714 69.6078 79.2774C69.462 79.4538 69.1784 79.6762 68.9714 79.776L68.6109 79.9524L54.1617 79.9753C38.2626 79.9984 39.2367 80.0214 38.6384 79.5304C38.4851 79.4001 38.2626 79.1239 38.1398 78.9321L37.9328 78.5718V69.3684V60.1649L38.1017 59.8503C38.3241 59.4283 38.8379 58.9989 39.2753 58.861C39.5669 58.7767 41.9137 58.7537 53.9702 58.7537C66.8085 58.7458 68.3579 58.7613 68.7183 58.8685Z" fill="#6EEBE7"/>
<path d="M61.8237 60.74V61.5068H65.1598H68.496V60.74V59.9732H65.1598H61.8237V60.74Z" fill="#6EEBE7"/>
<path d="M52.5042 60.8627C48.9687 61.4916 46.1999 64.2373 45.5094 67.7884C45.3485 68.6553 45.3485 70.0891 45.517 70.9636C46.1534 74.277 48.5849 76.854 51.9135 77.751C52.5808 77.9274 52.7955 77.9505 53.9997 77.9505C55.2039 77.9505 55.4184 77.9274 56.0859 77.751C59.4069 76.8535 61.8534 74.2612 62.4823 70.9636C62.9043 68.7471 62.3751 66.27 61.0711 64.4217C59.1459 61.691 55.756 60.2798 52.5042 60.8627ZM54.8355 62.3506C56.4843 62.5576 57.9877 63.3247 59.1459 64.5441C59.9205 65.3649 60.4422 66.285 60.7947 67.4586C60.9865 68.08 61.0095 68.2485 61.0095 69.3684C61.0095 70.4805 60.9865 70.6569 60.8025 71.2704C60.0048 73.8627 58.0186 75.7188 55.4184 76.2862C54.7282 76.4395 53.2861 76.4395 52.5805 76.2862C49.3899 75.5961 47.1121 72.9192 46.9663 69.6751C46.8742 67.5738 47.6413 65.6791 49.1674 64.2373C50.7323 62.7725 52.7649 62.0975 54.8355 62.3506Z" fill="#6EEBE7"/>
<path d="M4.5 2.5H103.5V127C103.5 129.485 101.485 131.5 99 131.5H9C6.51472 131.5 4.5 129.485 4.5 127V2.5Z" stroke="#6EEBE7"/>
</g>
<defs>
<filter id="filter0_d_7_191" x="0" y="0" width="108" height="138" filterUnits="userSpaceOnUse" color-interpolation-filters="sRGB">
<feFlood flood-opacity="0" result="BackgroundImageFix"/>
<feColorMatrix in="SourceAlpha" type="matrix" values="0 0 0 0 0 0 0 0 0 0 0 0 0 0 0 0 0 0 127 0" result="hardAlpha"/>
<feOffset dy="2"/>
<feGaussianBlur stdDeviation="2"/>
<feColorMatrix type="matrix" values="0 0 0 0 0 0 0 0 0 0 0 0 0 0 0 0 0 0 0.25 0"/>
<feBlend mode="normal" in2="BackgroundImageFix" result="effect1_dropShadow_7_191"/>
<feBlend mode="normal" in="SourceGraphic" in2="effect1_dropShadow_7_191" result="shape"/>
</filter>
</defs>
</svg>
